<svg width="85" height="72" viewBox="0 0 85 72" fill="none" xmlns="http://www.w3.org/2000/svg">
  <path d="M58.4215 17.8872C59.3501 18.8115 60.4485 19.5355 61.7155 20.0592C62.9824 20.5814 64.3566 20.844 65.8397 20.844C66.6654 20.844 67.4479 20.7505 68.1902 20.5636C68.931 20.3767 69.6211 20.12 70.259 19.7936C70.8969 19.4672 71.4648 19.0785 71.9626 18.6305C72.459 18.1825 72.8778 17.7063 73.2161 17.2018L71.5557 16.0254C71.1801 16.604 70.7717 17.0861 70.3305 17.4689C69.8893 17.8516 69.4198 18.1558 68.9235 18.3798C68.4257 18.6038 67.9189 18.7625 67.4032 18.856C66.8875 18.9495 66.3658 18.9955 65.8412 18.9955C64.5653 18.9955 63.4206 18.7625 62.4071 18.2952C61.3935 17.8279 60.535 17.2018 59.8315 16.4185C59.128 15.6337 58.5884 14.7228 58.2128 13.6858C57.8372 12.6488 57.6494 11.5614 57.6494 10.422C57.6494 9.28262 57.8372 8.19369 58.2128 7.15816C58.5884 6.12116 59.128 5.21025 59.8315 4.42545C60.535 3.64065 61.3935 3.01459 62.4071 2.54875C63.4206 2.08143 64.5653 1.84851 65.8412 1.84851C66.3658 1.84851 66.892 1.92269 67.4181 2.07253C67.9428 2.22237 68.4361 2.4182 68.8967 2.6615C69.3558 2.9048 69.7641 3.1852 70.1219 3.50268C70.4781 3.82016 70.7598 4.13764 70.967 4.45512L72.7407 3.13772C71.8583 2.01615 70.7986 1.21355 69.56 0.728427C68.3214 0.243303 67.0827 0 65.8441 0C64.3611 0 62.9869 0.26259 61.7199 0.784802C60.453 1.3085 59.3545 2.03247 58.4259 2.95673C57.4974 3.88099 56.77 4.97882 56.2439 6.24874C55.7177 7.51867 55.4554 8.91024 55.4554 10.4235C55.4554 11.9367 55.7177 13.3283 56.2439 14.5982C56.7685 15.8681 57.4974 16.966 58.4259 17.8902L58.4215 17.8872ZM15.449 10.9828H26.3386V20.3692H28.3701V0.531113H26.3386V9.13278H15.449V0.531113H13.4174V20.3692H15.449V10.9828ZM0 72H41.634V30.0954H0V72ZM15.7754 42.7695H27.6949V44.6061H17.7861V51.3148H26.9974V53.1514H17.7861V62.4756H15.7769V42.768L15.7754 42.7695ZM43.366 30.0954V72H85V30.0954H43.366ZM69.8566 62.5527L63.7753 53.5579L57.6658 62.5527H55.132L62.4235 52.1292L55.6954 42.7146H58.4259L63.8588 50.6442L69.4333 42.7146H71.9671L65.2107 52.1292L72.5305 62.5527H69.8566Z" fill="#ffffff"/>
</svg>